<svg xmlns="http://www.w3.org/2000/svg" viewBox="0 0 220 210"><ellipse cx="110" cy="187" rx="63" ry="9" fill="#557963" opacity=".12"/><g fill="#314f42" stroke="#3e5b48" stroke-width="2.5" stroke-linejoin="round" stroke-linecap="round"><path d="M110 139Q121 183 92 183Q66 184 77 159" fill="none" stroke="#7b96af" stroke-width="6"/><path d="M103 81Q56 64 31 124Q70 124 82 145Q107 174 136 142Q157 122 193 126Q171 76 131 81Z" fill="#96acc7"/><path d="M32 124Q59 109 90 127M132 127Q164 109 193 126" fill="none" stroke="#c6d5d4" stroke-width="7"/><path d="M85 136Q110 159 137 134Q126 157 109 157Q94 155 85 136Z" fill="#d8d8cd"/><path d="M108 84Q95 56 110 43" fill="none" stroke-width="4"/><path d="M101 44Q99 25 113 25Q126 26 123 44Z" fill="#d7c995"/><circle cx="112" cy="47" r="4" fill="#a49b75"/><ellipse cx="94" cy="113" rx="4" ry="6"/><ellipse cx="127" cy="113" rx="4" ry="6"/><path d="M104 128Q110 133 118 127" fill="none"/><circle cx="78" cy="127" r="5" fill="#c1b6b5" stroke="none"/><circle cx="142" cy="127" r="5" fill="#c1b6b5" stroke="none"/></g></svg>